<?xml version="1.0" standalone="no"?>
<!DOCTYPE svg PUBLIC "-//W3C//DTD SVG 20010904//EN"
 "http://www.w3.org/TR/2001/REC-SVG-20010904/DTD/svg10.dtd">
<svg version="1.0" xmlns="http://www.w3.org/2000/svg"
 width="91.000000pt" height="91.000000pt" viewBox="0 0 91.000000 91.000000"
 preserveAspectRatio="xMidYMid meet">
<metadata>
Created by potrace 1.14, written by Peter Selinger 2001-2017
</metadata>
<g transform="translate(0.000000,91.000000) scale(0.100000,-0.100000)"
fill="#000000" stroke="none">
<path d="M413 758 c-6 -7 -43 -67 -83 -133 -40 -66 -115 -189 -167 -273 -52
-84 -93 -161 -91 -170 3 -16 34 -17 363 -17 326 0 360 2 363 17 4 21 -340 582
-360 586 -8 2 -20 -3 -25 -10z m155 -229 c162 -269 196 -329 188 -336 -8 -8
-625 -10 -638 -2 -13 8 -7 21 118 229 55 91 120 200 144 242 25 43 49 76 55
74 5 -1 65 -95 133 -207z"/>
<path d="M403 653 c-33 -54 -231 -385 -251 -420 l-13 -23 291 0 c184 0 290 4
290 10 0 9 -37 74 -85 150 -12 19 -62 101 -110 183 -47 81 -88 147 -90 147 -1
0 -16 -21 -32 -47z m217 -304 c28 -50 49 -96 47 -103 -3 -8 -70 -11 -233 -9
-126 1 -235 2 -241 2 -29 2 -9 20 55 49 37 17 123 58 192 92 69 33 126 60 126
60 1 0 25 -41 54 -91z"/>
<path d="M459 364 c-52 -25 -118 -57 -146 -71 -29 -14 -53 -27 -53 -29 0 -2
86 -4 191 -4 l191 0 -37 68 c-21 37 -41 70 -44 75 -4 4 -50 -13 -102 -39z"/>
</g>
</svg>
